<svg width="306" height="74" viewBox="0 0 306 74" fill="none" xmlns="http://www.w3.org/2000/svg">
<path d="M8.30285 36.7686C14.518 40.665 23.2046 42.6293 30.3673 40.5934C29.7905 38.7986 29.4371 37.8019 28.5319 36.111C28.4609 36.2252 28.3846 36.2445 28.2816 36.2706C28.2651 36.2748 28.2479 36.2791 28.23 36.2841C22.2989 37.9321 10.0166 34.4296 6.6715 28.9734C5.17619 26.5353 5.62012 23.5841 8.81601 23.1962V23.195L2.42066 21.8119C-1.49603 27.6332 3.41714 33.7064 8.30285 36.7686Z" fill="url(#paint0_linear_230_356)"/>
<path d="M13.9702 53.1729C9.8459 57.7328 4.54369 67.3753 11.4307 71.9496L13.2363 67.04C11.7326 63.9873 15.1493 59.0574 17.1351 56.8139C20.8513 52.6179 26.0938 48.8504 31.6359 47.6272C33.3694 47.1346 34.4069 46.9653 36.4082 46.9088H40.1077C40.1778 45.0846 40.2931 44.0625 40.6889 42.2403L35.8151 42.1364C33.9111 42.2145 32.8608 42.3323 31.0297 42.7236C24.4422 44.3502 18.4944 48.1726 13.9702 53.1729Z" fill="url(#paint1_linear_230_356)"/>
<path d="M33.0107 59.6828C35.1349 55.7362 36.302 51.4102 36.4094 46.9112L36.4082 46.9088C34.4069 46.9653 33.3694 47.1346 31.6359 47.6272C31.285 54.6538 27.1679 61.7449 21.5995 65.9325C19.6782 67.3765 14.8104 70.2347 13.2363 67.04L11.4307 71.9496C19.3966 77.2398 29.5821 66.0519 33.0107 59.6828Z" fill="url(#paint2_linear_230_356)"/>
<path d="M50.489 69.0472C54.5656 72.7133 61.7891 76.6312 66.2464 71.3159L62.1269 68.6296C59.875 70.2442 55.969 67.5042 54.2541 66.0017C49.2049 61.579 44.9624 54.7374 44.8837 47.8659L44.8849 47.8647L44.8885 47.8659C44.9458 45.9941 45.0452 44.9439 45.4801 43.0674C45.4749 43.0472 45.4803 43.0075 45.4971 42.93C45.5782 42.5597 45.7312 42.1773 45.8855 41.7913C46.0624 41.3489 46.2411 40.9018 46.3157 40.4633C44.5369 39.9391 43.5727 39.5186 41.8859 38.6398L40.6889 42.2403C40.2931 44.0625 40.1778 45.0846 40.1077 46.9088C39.7987 55.1515 44.4922 63.6543 50.489 69.0472Z" fill="url(#paint3_linear_230_356)"/>
<path d="M58.9656 50.5462C54.8389 46.8145 50.8351 44.9075 45.6438 43.1007C45.5969 43.0843 45.5595 43.0858 45.5321 43.0869C45.5033 43.0881 45.4857 43.0888 45.4801 43.0674C45.0452 44.9439 44.9458 45.9941 44.8885 47.8659C50.7634 49.7877 56.3719 53.8064 60.0194 58.8044C61.5409 60.8905 65.0184 66.5555 62.1269 68.6296L66.2464 71.3159C71.6417 64.8811 63.7952 54.9116 58.9656 50.5462Z" fill="url(#paint4_linear_230_356)"/>
<path d="M58.246 21.4264C52.5893 24.2846 47.5354 28.9949 44.2273 34.3771C45.9086 35.2888 46.8724 35.7466 48.7013 36.2889C48.4984 36.0681 50.7527 33.371 51.0272 33.0655C54.7446 28.9316 62.2056 23.46 67.9744 23.5447C69.2389 23.5635 70.2858 23.9081 70.9444 24.5567L75.124 22.2153C71.415 16.703 63.1484 18.9502 58.246 21.4264Z" fill="url(#paint5_linear_230_356)"/>
<path d="M71.6704 35.3282C75.4701 32.2481 78.1982 26.7835 75.124 22.2153L70.9444 24.5567C71.7106 25.3111 71.9514 26.4767 71.3983 28.0187C70.3696 30.8864 66.6796 33.2696 64.0196 34.4833C59.2854 36.6421 53.809 37.4858 48.7013 36.2889C46.8724 35.7466 45.9086 35.2888 44.2273 34.3771C44.1131 34.255 43.7941 34.0295 43.4281 33.7708C42.7423 33.286 41.8916 32.6847 41.9157 32.4295C40.6359 34.1101 39.8201 34.8359 38.32 36.1039H38.5575L41.8859 38.6398C43.5727 39.5186 44.5369 39.9391 46.3157 40.4633C54.488 43.3811 65.0411 40.702 71.6704 35.3282Z" fill="url(#paint6_linear_230_356)"/>
<path fill-rule="evenodd" clip-rule="evenodd" d="M35.0323 38.5587L38.32 36.1039C39.8201 34.8359 40.6359 34.1101 41.9157 32.4295C46.2728 26.447 48.5569 19.0898 48.1094 11.6395C47.7537 5.71674 44.0244 -1.14403 37.098 0.161534L39.6352 4.96132C42.3513 5.77402 43.2034 9.77186 43.3382 12.2374C43.6509 17.9823 41.9265 23.9516 38.6757 28.6524C37.5404 30.2006 36.8195 31.017 35.3258 32.3077L33.0059 34.2589C32.95 34.2705 32.9121 34.2735 32.8863 34.2701C33.888 35.8551 34.3166 36.8166 35.0323 38.5587Z" fill="url(#paint7_linear_230_356)"/>
<path d="M29.6441 19.2449C30.4354 23.9337 32.4772 28.5283 35.3258 32.3077C36.8195 31.017 37.5404 30.2006 38.6757 28.6524C38.4167 28.8302 36.4226 24.8992 36.2698 24.5567C34.4022 20.3679 33.3663 14.4284 34.321 9.91506C34.8401 7.46266 36.5968 4.05197 39.6352 4.96132L37.098 0.161534C29.0665 1.67474 28.5737 12.8985 29.6441 19.2449Z" fill="url(#paint8_linear_230_356)"/>
<path d="M30.3673 40.5934L31.0297 42.7236C32.8608 42.3323 33.9111 42.2145 35.8151 42.1364L35.0323 38.5587C34.3166 36.8166 33.888 35.8551 32.8863 34.2701L32.8137 34.125L32.8042 34.1062C29.4818 28.7121 25.1248 24.4159 19.5433 21.3513C14.6421 18.6602 6.25023 16.1207 2.42066 21.8119L8.81601 23.195C12.722 22.7213 17.6124 25.503 20.6472 27.7669C23.6808 30.0296 26.5497 32.8734 28.5319 36.111C29.4371 37.8019 29.7905 38.7986 30.3673 40.5934Z" fill="url(#paint9_linear_230_356)"/>
<path d="M106.902 68.7943C105.997 68.7943 104.978 68.7038 103.846 68.5227C102.759 68.3415 101.718 68.1152 100.722 67.8435C99.7711 67.5718 99.024 67.2775 98.4806 66.9605C98.1637 66.7794 97.9146 66.5983 97.7335 66.4172C97.5977 66.1908 97.5298 65.8286 97.5298 65.3305L97.1902 54.6674C97.1902 53.7619 97.4845 53.3091 98.0731 53.3091C98.5712 53.3091 98.9108 53.7166 99.0919 54.5316L99.7031 57.1125C101.243 63.5873 104.118 66.8247 108.329 66.8247C110.593 66.8247 112.381 66.0776 113.694 64.5834C115.053 63.044 115.732 60.8932 115.732 58.1312C115.732 55.4598 115.03 52.9695 113.626 50.6603C112.268 48.3511 110.072 46.0645 107.038 43.8006C103.688 41.4009 101.243 39.0917 99.7031 36.873C98.1637 34.6091 97.3939 32.2093 97.3939 29.6737C97.3939 26.3231 98.5485 23.6517 100.858 21.6594C103.212 19.6219 106.201 18.6031 109.823 18.6031C111.181 18.6031 112.494 18.7616 113.762 19.0786C115.03 19.3955 116.071 19.8483 116.886 20.4369C117.158 20.618 117.362 20.8218 117.498 21.0482C117.679 21.2746 117.769 21.5689 117.769 21.9311L117.973 32.1867C117.973 32.9564 117.679 33.3413 117.09 33.3413C116.683 33.3413 116.388 33.0243 116.207 32.3904L115.732 30.6925C114.736 27.2061 113.694 24.6705 112.608 23.0857C111.566 21.4557 110.049 20.6407 108.057 20.6407C106.11 20.6407 104.548 21.2746 103.371 22.5424C102.239 23.8102 101.673 25.5987 101.673 27.9079C101.673 29.8548 102.307 31.7113 103.574 33.4771C104.842 35.243 107.061 37.3937 110.23 39.9293C113.626 42.6913 116.094 45.3627 117.633 47.9436C119.218 50.4792 120.011 53.1959 120.011 56.0937C120.011 58.6293 119.445 60.848 118.313 62.7497C117.181 64.6514 115.619 66.1455 113.626 67.2322C111.679 68.2736 109.438 68.7943 106.902 68.7943Z" fill="#263E59"/>
<path d="M134.492 68.7943C132.183 68.7943 130.1 68.0246 128.244 66.4851C126.433 64.9004 124.984 62.7497 123.897 60.0329C122.811 57.3162 122.267 54.2826 122.267 50.932C122.267 47.5814 122.811 44.5703 123.897 41.8989C124.984 39.2275 126.455 37.0994 128.312 35.5147C130.168 33.9299 132.228 33.1375 134.492 33.1375C136.802 33.1375 138.862 33.9299 140.673 35.5147C142.529 37.0994 144.001 39.2275 145.088 41.8989C146.174 44.5703 146.718 47.5814 146.718 50.932C146.718 54.2826 146.174 57.3162 145.088 60.0329C144.046 62.7497 142.597 64.9004 140.741 66.4851C138.884 68.0246 136.802 68.7943 134.492 68.7943ZM134.492 67.0964C139.201 67.0964 141.556 61.7082 141.556 50.932C141.556 40.201 139.201 34.8355 134.492 34.8355C129.783 34.8355 127.429 40.201 127.429 50.932C127.429 61.7082 129.783 67.0964 134.492 67.0964Z" fill="#263E59"/>
<path d="M152.097 68.8622C150.603 68.8622 149.539 68.3189 148.905 67.2322C148.271 66.1003 148.248 64.2665 148.837 61.7309L157.462 24.7157C157.689 23.9007 157.689 23.3347 157.462 23.0178C157.281 22.7008 156.874 22.5197 156.24 22.4745L154.202 22.2707C153.523 22.2254 153.229 21.9311 153.319 21.3878C153.41 20.9803 153.727 20.7312 154.27 20.6407C155.9 20.369 157.349 20.0521 158.617 19.6898C159.885 19.2823 160.904 18.7616 161.673 18.1277C162.035 17.856 162.375 17.7202 162.692 17.7202C163.235 17.7202 163.439 18.0598 163.303 18.739L153.251 61.7988C153.025 62.7949 152.98 63.5873 153.116 64.1759C153.297 64.7193 153.727 64.9909 154.406 64.9909C155.221 64.9909 156.104 64.4023 157.055 63.2251C158.051 62.0026 159.16 59.716 160.383 56.3654C160.564 55.7768 160.881 55.4825 161.334 55.4825C162.013 55.4825 162.194 55.89 161.877 56.705C160.926 59.7839 159.862 62.229 158.685 64.0401C157.553 65.806 156.421 67.0511 155.289 67.7756C154.157 68.5 153.093 68.8622 152.097 68.8622Z" fill="#263E59"/>
<path d="M170.179 68.7943C168.277 68.7943 166.715 68.2057 165.493 67.0285C164.27 65.806 163.659 64.1986 163.659 62.2063C163.659 60.2593 164.27 58.4256 165.493 56.705C166.715 54.9391 168.39 53.3544 170.518 51.9507C172.647 50.5471 175.069 49.4151 177.786 48.5549C178.374 48.3737 178.669 47.9889 178.669 47.4003V41.2197C178.669 39.0464 178.329 37.5069 177.65 36.6013C176.971 35.6505 176.042 35.1751 174.865 35.1751C173.733 35.1751 172.692 35.6958 171.741 36.7372C170.835 37.7333 170.179 39.4312 169.771 41.831C169.545 43.2799 169.047 44.344 168.277 45.0231C167.553 45.657 166.806 45.974 166.036 45.974C164.768 45.974 164.134 45.3401 164.134 44.0723C164.134 42.7592 164.496 41.4688 165.221 40.201C165.991 38.8879 166.987 37.7107 168.209 36.6693C169.432 35.5826 170.768 34.7223 172.216 34.0884C173.665 33.4545 175.114 33.1375 176.563 33.1375C181.046 33.1375 183.287 35.741 183.287 40.9481V61.7309C183.287 63.6326 183.762 64.5834 184.713 64.5834C185.302 64.5834 185.845 64.1986 186.343 63.4288C186.841 62.6138 187.09 61.2555 187.09 59.3538C187.09 58.6293 187.385 58.2671 187.973 58.2671C188.517 58.2671 188.788 58.652 188.788 59.4217C188.788 62.727 188.2 65.1268 187.022 66.621C185.891 68.0699 184.6 68.7943 183.151 68.7943C182.064 68.7943 181.204 68.3642 180.57 67.5039C179.936 66.5983 179.506 65.5343 179.28 64.3118C179.235 63.859 179.031 63.6326 178.669 63.6326C178.352 63.5873 178.035 63.7911 177.718 64.2438C176.631 65.738 175.522 66.87 174.39 67.6397C173.258 68.4095 171.854 68.7943 170.179 68.7943ZM172.013 65.6701C173.19 65.6701 174.277 65.2626 175.273 64.4476C176.269 63.5873 177.084 62.4553 177.718 61.0517C178.352 59.6481 178.669 58.0633 178.669 56.2975V51.3395C178.669 50.4792 178.193 50.2302 177.242 50.5924C174.48 51.5885 172.33 52.9695 170.79 54.7354C169.296 56.4559 168.549 58.5388 168.549 60.9838C168.549 64.108 169.703 65.6701 172.013 65.6701Z" fill="#263E59"/>
<path d="M189.835 68.1831C189.156 68.1831 188.816 67.934 188.816 67.436C188.816 67.0285 189.111 66.7568 189.699 66.621L190.514 66.4851C191.465 66.304 192.076 66.0323 192.348 65.6701C192.665 65.2626 192.824 64.5834 192.824 63.6326V40.8122C192.824 39.9972 192.688 39.4539 192.416 39.1822C192.19 38.8653 191.76 38.6615 191.126 38.5709L189.699 38.3672C189.111 38.3219 188.816 38.0729 188.816 37.6201C188.816 37.2579 189.179 37.0088 189.903 36.873C191.307 36.6466 192.371 36.2844 193.095 35.7863C193.865 35.2883 194.657 34.677 195.472 33.9525C195.88 33.545 196.219 33.3413 196.491 33.3413C196.899 33.3413 197.102 33.613 197.102 34.1563V37.2126C197.102 37.6201 197.238 37.8918 197.51 38.0276C197.827 38.1182 198.166 37.9823 198.529 37.6201C200.34 35.8995 201.925 34.7223 203.283 34.0884C204.687 33.4545 206.158 33.1375 207.698 33.1375C209.735 33.1375 211.365 33.862 212.588 35.3109C213.81 36.7145 214.421 38.7973 214.421 41.5593V63.6326C214.421 64.5834 214.557 65.2626 214.829 65.6701C215.146 66.0323 215.78 66.2814 216.731 66.4172L218.225 66.621C218.723 66.7115 218.972 66.9832 218.972 67.436C218.972 67.934 218.7 68.1831 218.157 68.1831H206.747C206.113 68.1831 205.796 67.934 205.796 67.436C205.796 66.9832 206.045 66.7115 206.543 66.621L207.494 66.4851C208.445 66.3493 209.056 66.0776 209.328 65.6701C209.645 65.2626 209.803 64.5834 209.803 63.6326V42.3064C209.803 40.0878 209.396 38.5257 208.58 37.6201C207.765 36.7145 206.611 36.2617 205.117 36.2617C203.668 36.2617 202.355 36.6919 201.177 37.5522C200.046 38.3672 199.14 39.4765 198.461 40.8802C197.782 42.2385 197.442 43.7553 197.442 45.4306V63.6326C197.442 64.5834 197.578 65.2626 197.85 65.6701C198.166 66.0776 198.8 66.3266 199.751 66.4172L201.585 66.621C202.083 66.7115 202.332 66.9605 202.332 67.3681C202.332 67.9114 201.992 68.1831 201.313 68.1831H189.835Z" fill="#263E59"/>
<path d="M226.085 27.0929C225.134 27.0929 224.319 26.7533 223.64 26.0741C223.006 25.3949 222.689 24.5346 222.689 23.4932C222.689 22.4518 223.006 21.6142 223.64 20.9803C224.319 20.3011 225.134 19.9615 226.085 19.9615C227.036 19.9615 227.828 20.3011 228.462 20.9803C229.096 21.6142 229.413 22.4518 229.413 23.4932C229.413 24.5346 229.096 25.3949 228.462 26.0741C227.828 26.7533 227.036 27.0929 226.085 27.0929ZM220.38 68.1831C219.7 68.1831 219.361 67.934 219.361 67.436C219.361 67.0285 219.655 66.7568 220.244 66.621L221.059 66.4851C222.191 66.304 222.915 66.0323 223.232 65.6701C223.549 65.2626 223.708 64.5834 223.708 63.6326V40.8122C223.708 39.9972 223.572 39.4539 223.3 39.1822C223.074 38.8653 222.644 38.6615 222.01 38.5709L220.583 38.3672C219.995 38.3219 219.7 38.0729 219.7 37.6201C219.7 37.2579 220.063 37.0088 220.787 36.873C222.191 36.6466 223.323 36.2844 224.183 35.7863C225.043 35.2883 225.881 34.677 226.696 33.9525C227.103 33.545 227.443 33.3413 227.715 33.3413C228.122 33.3413 228.326 33.613 228.326 34.1563V63.6326C228.326 64.5834 228.462 65.2626 228.733 65.6701C229.005 66.0776 229.526 66.3266 230.296 66.4172L231.994 66.621C232.492 66.7115 232.741 66.9605 232.741 67.3681C232.741 67.9114 232.401 68.1831 231.722 68.1831H220.38Z" fill="#263E59"/>
<path d="M241.003 68.7943C239.962 68.7943 238.853 68.6585 237.675 68.3868C236.498 68.1604 235.547 67.8661 234.823 67.5039C234.415 67.2775 234.211 66.8926 234.211 66.3493L234.008 58.7425C234.008 57.9728 234.302 57.5879 234.891 57.5879C235.389 57.5879 235.728 57.9501 235.909 58.6746C236.679 61.8894 237.607 64.0854 238.694 65.2626C239.826 66.4398 241.184 67.0285 242.769 67.0285C244.082 67.0285 245.169 66.5304 246.029 65.5343C246.889 64.4929 247.32 63.0666 247.32 61.2555C247.32 59.4443 246.822 57.8369 245.825 56.4333C244.829 55.0297 243.154 53.4902 240.799 51.8149C238.445 50.2302 236.724 48.6454 235.638 47.0607C234.551 45.4306 234.008 43.6648 234.008 41.7631C234.008 39.1822 234.913 37.0994 236.724 35.5147C238.536 33.9299 240.935 33.1375 243.924 33.1375C244.829 33.1375 245.712 33.2507 246.572 33.4771C247.433 33.6582 248.203 33.9752 248.882 34.428C249.289 34.6996 249.493 35.0619 249.493 35.5147L249.629 42.9856C249.629 43.6648 249.357 44.0044 248.814 44.0044C248.497 44.0044 248.27 43.9138 248.135 43.7327C247.999 43.5063 247.886 43.2346 247.795 42.9177C246.889 39.9746 245.984 37.9371 245.078 36.8051C244.173 35.6278 243.063 35.0392 241.75 35.0392C240.573 35.0392 239.6 35.4467 238.83 36.2617C238.06 37.0768 237.675 38.0955 237.675 39.318C237.675 40.9028 238.151 42.2838 239.102 43.461C240.052 44.6383 241.773 46.0872 244.263 47.8078C246.527 49.4378 248.225 51.2036 249.357 53.1053C250.534 54.9618 251.123 56.9993 251.123 59.2179C251.123 62.1158 250.195 64.4476 248.338 66.2135C246.482 67.934 244.037 68.7943 241.003 68.7943Z" fill="#263E59"/>
<path d="M258.908 68.7943C257.911 68.7943 257.051 68.4774 256.327 67.8435C255.647 67.1643 255.308 66.2814 255.308 65.1947C255.308 64.1533 255.647 63.3156 256.327 62.6817C257.051 62.0026 257.911 61.663 258.908 61.663C259.813 61.663 260.628 62.0026 261.353 62.6817C262.077 63.3156 262.439 64.1533 262.439 65.1947C262.439 66.2814 262.077 67.1643 261.353 67.8435C260.628 68.4774 259.813 68.7943 258.908 68.7943Z" fill="#263E59"/>
<path d="M272.891 68.7943C270.989 68.7943 269.427 68.2057 268.205 67.0285C266.982 65.806 266.371 64.1986 266.371 62.2063C266.371 60.2593 266.982 58.4256 268.205 56.705C269.427 54.9391 271.103 53.3544 273.231 51.9507C275.359 50.5471 277.781 49.4151 280.498 48.5549C281.087 48.3737 281.381 47.9889 281.381 47.4003V41.2197C281.381 39.0464 281.041 37.5069 280.362 36.6013C279.683 35.6505 278.755 35.1751 277.577 35.1751C276.445 35.1751 275.404 35.6958 274.453 36.7372C273.548 37.7333 272.891 39.4312 272.484 41.831C272.257 43.2799 271.759 44.344 270.989 45.0231C270.265 45.657 269.518 45.974 268.748 45.974C267.48 45.974 266.846 45.3401 266.846 44.0723C266.846 42.7592 267.209 41.4688 267.933 40.201C268.703 38.8879 269.699 37.7107 270.921 36.6693C272.144 35.5826 273.48 34.7223 274.929 34.0884C276.378 33.4545 277.826 33.1375 279.275 33.1375C283.758 33.1375 285.999 35.741 285.999 40.9481V61.7309C285.999 63.6326 286.475 64.5834 287.425 64.5834C288.014 64.5834 288.557 64.1986 289.056 63.4288C289.554 62.6138 289.803 61.2555 289.803 59.3538C289.803 58.6293 290.097 58.2671 290.686 58.2671C291.229 58.2671 291.501 58.652 291.501 59.4217C291.501 62.727 290.912 65.1268 289.735 66.621C288.603 68.0699 287.312 68.7943 285.863 68.7943C284.777 68.7943 283.916 68.3642 283.283 67.5039C282.649 66.5983 282.218 65.5343 281.992 64.3118C281.947 63.859 281.743 63.6326 281.381 63.6326C281.064 63.5873 280.747 63.7911 280.43 64.2438C279.343 65.738 278.234 66.87 277.102 67.6397C275.97 68.4095 274.566 68.7943 272.891 68.7943ZM274.725 65.6701C275.902 65.6701 276.989 65.2626 277.985 64.4476C278.981 63.5873 279.796 62.4553 280.43 61.0517C281.064 59.6481 281.381 58.0633 281.381 56.2975V51.3395C281.381 50.4792 280.905 50.2302 279.955 50.5924C277.193 51.5885 275.042 52.9695 273.502 54.7354C272.008 56.4559 271.261 58.5388 271.261 60.9838C271.261 64.108 272.416 65.6701 274.725 65.6701Z" fill="#263E59"/>
<path d="M298.253 27.0929C297.302 27.0929 296.487 26.7533 295.807 26.0741C295.174 25.3949 294.857 24.5346 294.857 23.4932C294.857 22.4518 295.174 21.6142 295.807 20.9803C296.487 20.3011 297.302 19.9615 298.253 19.9615C299.203 19.9615 299.996 20.3011 300.63 20.9803C301.264 21.6142 301.581 22.4518 301.581 23.4932C301.581 24.5346 301.264 25.3949 300.63 26.0741C299.996 26.7533 299.203 27.0929 298.253 27.0929ZM292.547 68.1831C291.868 68.1831 291.529 67.934 291.529 67.436C291.529 67.0285 291.823 66.7568 292.412 66.621L293.227 66.4851C294.359 66.304 295.083 66.0323 295.4 65.6701C295.717 65.2626 295.875 64.5834 295.875 63.6326V40.8122C295.875 39.9972 295.74 39.4539 295.468 39.1822C295.242 38.8653 294.811 38.6615 294.177 38.5709L292.751 38.3672C292.163 38.3219 291.868 38.0729 291.868 37.6201C291.868 37.2579 292.23 37.0088 292.955 36.873C294.359 36.6466 295.491 36.2844 296.351 35.7863C297.211 35.2883 298.049 34.677 298.864 33.9525C299.271 33.545 299.611 33.3413 299.883 33.3413C300.29 33.3413 300.494 33.613 300.494 34.1563V63.6326C300.494 64.5834 300.63 65.2626 300.901 65.6701C301.173 66.0776 301.694 66.3266 302.463 66.4172L304.161 66.621C304.659 66.7115 304.908 66.9605 304.908 67.3681C304.908 67.9114 304.569 68.1831 303.89 68.1831H292.547Z" fill="#263E59"/>
<defs>
<linearGradient id="paint0_linear_230_356" x1="4.93304" y1="31.2245" x2="29.4803" y2="38.9099" gradientUnits="userSpaceOnUse">
<stop stop-color="#5DB9F3"/>
<stop offset="1" stop-color="#4279EE"/>
</linearGradient>
<linearGradient id="paint1_linear_230_356" x1="40.687" y1="43.3461" x2="24.119" y2="46.52" gradientUnits="userSpaceOnUse">
<stop stop-color="#4279EE"/>
<stop offset="1" stop-color="#5DB9F3"/>
</linearGradient>
<linearGradient id="paint2_linear_230_356" x1="33.6409" y1="48.9957" x2="10.7922" y2="70.5783" gradientUnits="userSpaceOnUse">
<stop stop-color="#4279EE"/>
<stop offset="1" stop-color="#5DB9F3"/>
</linearGradient>
<linearGradient id="paint3_linear_230_356" x1="43.9501" y1="38.383" x2="46.0859" y2="57.707" gradientUnits="userSpaceOnUse">
<stop stop-color="#4279EE"/>
<stop offset="1" stop-color="#5DB9F3"/>
</linearGradient>
<linearGradient id="paint4_linear_230_356" x1="45.481" y1="43.3842" x2="63.9845" y2="70.6953" gradientUnits="userSpaceOnUse">
<stop stop-color="#4279EE"/>
<stop offset="1" stop-color="#5DB9F3"/>
</linearGradient>
<linearGradient id="paint5_linear_230_356" x1="45.7116" y1="35.3884" x2="58.6162" y2="24.8583" gradientUnits="userSpaceOnUse">
<stop stop-color="#4279EE"/>
<stop offset="1" stop-color="#5DB9F3"/>
</linearGradient>
<linearGradient id="paint6_linear_230_356" x1="38.726" y1="34.1496" x2="57.7903" y2="39.9308" gradientUnits="userSpaceOnUse">
<stop stop-color="#4279EE"/>
<stop offset="1" stop-color="#5DB9F3"/>
</linearGradient>
<linearGradient id="paint7_linear_230_356" x1="40.6531" y1="22.4839" x2="33.633" y2="36.9552" gradientUnits="userSpaceOnUse">
<stop stop-color="#5DB9F3"/>
<stop offset="1" stop-color="#4279EE"/>
</linearGradient>
<linearGradient id="paint8_linear_230_356" x1="30.3294" y1="18.0447" x2="38.726" y2="32.3946" gradientUnits="userSpaceOnUse">
<stop stop-color="#5DB9F3"/>
<stop offset="1" stop-color="#4279EE"/>
</linearGradient>
<linearGradient id="paint9_linear_230_356" x1="26.3645" y1="29.9742" x2="34.0428" y2="45.3309" gradientUnits="userSpaceOnUse">
<stop stop-color="#5DB9F3"/>
<stop offset="1" stop-color="#4279EE"/>
</linearGradient>
</defs>
</svg>
